<svg width="838" height="320" viewBox="0 0 838 320" fill="none" xmlns="http://www.w3.org/2000/svg">
<path d="M38.256 53.8H76.4L105.584 233H77.424L72.304 197.416V197.928H40.304L35.184 233H9.072L38.256 53.8ZM68.976 173.608L56.432 85.032H55.92L43.632 173.608H68.976ZM110.15 130.6H166.47V156.2H110.15V130.6ZM223.95 235.56C210.126 235.56 199.545 231.635 192.206 223.784C184.867 215.933 181.198 204.84 181.198 190.504V96.296C181.198 81.96 184.867 70.8667 192.206 63.016C199.545 55.1653 210.126 51.24 223.95 51.24C237.774 51.24 248.355 55.1653 255.694 63.016C263.033 70.8667 266.702 81.96 266.702 96.296V190.504C266.702 204.84 263.033 215.933 255.694 223.784C248.355 231.635 237.774 235.56 223.95 235.56ZM223.95 209.96C233.678 209.96 238.542 204.072 238.542 192.296V94.504C238.542 82.728 233.678 76.84 223.95 76.84C214.222 76.84 209.358 82.728 209.358 94.504V192.296C209.358 204.072 214.222 209.96 223.95 209.96ZM285.746 53.8H313.906V129.32L349.746 53.8H377.906L344.37 119.592L378.418 233H348.978L325.17 153.128L313.906 175.912V233H285.746V53.8ZM392.996 205.864H420.132V233H392.996V205.864ZM477.854 235.56C464.201 235.56 453.875 231.72 446.878 224.04C439.881 216.189 436.382 205.011 436.382 190.504V180.264H463.006V192.552C463.006 204.157 467.87 209.96 477.598 209.96C482.377 209.96 485.961 208.595 488.35 205.864C490.91 202.963 492.19 198.355 492.19 192.04C492.19 184.531 490.483 177.96 487.07 172.328C483.657 166.525 477.342 159.613 468.126 151.592C456.521 141.352 448.414 132.136 443.806 123.944C439.198 115.581 436.894 106.195 436.894 95.784C436.894 81.6187 440.478 70.696 447.646 63.016C454.814 55.1653 465.225 51.24 478.878 51.24C492.361 51.24 502.515 55.1653 509.342 63.016C516.339 70.696 519.838 81.7893 519.838 96.296V103.72H493.214V94.504C493.214 88.36 492.019 83.9227 489.63 81.192C487.241 78.2907 483.742 76.84 479.134 76.84C469.747 76.84 465.054 82.5573 465.054 93.992C465.054 100.477 466.761 106.536 470.174 112.168C473.758 117.8 480.158 124.627 489.374 132.648C501.15 142.888 509.257 152.189 513.694 160.552C518.131 168.915 520.35 178.728 520.35 189.992C520.35 204.669 516.681 215.933 509.342 223.784C502.174 231.635 491.678 235.56 477.854 235.56ZM536.496 53.8H564.656V126.76H594.864V53.8H623.024V233H594.864V152.36H564.656V233H536.496V53.8ZM684.7 235.56C670.876 235.56 660.295 231.635 652.956 223.784C645.617 215.933 641.948 204.84 641.948 190.504V96.296C641.948 81.96 645.617 70.8667 652.956 63.016C660.295 55.1653 670.876 51.24 684.7 51.24C698.524 51.24 709.105 55.1653 716.444 63.016C723.783 70.8667 727.452 81.96 727.452 96.296V190.504C727.452 204.84 723.783 215.933 716.444 223.784C709.105 231.635 698.524 235.56 684.7 235.56ZM684.7 209.96C694.428 209.96 699.292 204.072 699.292 192.296V94.504C699.292 82.728 694.428 76.84 684.7 76.84C674.972 76.84 670.108 82.728 670.108 94.504V192.296C670.108 204.072 674.972 209.96 684.7 209.96ZM746.496 53.8H787.968C801.963 53.8 812.459 57.5547 819.456 65.064C826.453 72.5733 829.952 83.5813 829.952 98.088V115.752C829.952 130.259 826.453 141.267 819.456 148.776C812.459 156.285 801.963 160.04 787.968 160.04H774.656V233H746.496V53.8ZM787.968 134.44C792.576 134.44 795.989 133.16 798.208 130.6C800.597 128.04 801.792 123.688 801.792 117.544V96.296C801.792 90.152 800.597 85.8 798.208 83.24C795.989 80.68 792.576 79.4 787.968 79.4H774.656V134.44H787.968Z" fill="black"/>
<path d="M41.256 61.8H79.4L108.584 241H80.424L75.304 205.416V205.928H43.304L38.184 241H12.072L41.256 61.8ZM71.976 181.608L59.432 93.032H58.92L46.632 181.608H71.976ZM113.15 138.6H169.47V164.2H113.15V138.6ZM226.95 243.56C213.126 243.56 202.545 239.635 195.206 231.784C187.867 223.933 184.198 212.84 184.198 198.504V104.296C184.198 89.96 187.867 78.8667 195.206 71.016C202.545 63.1653 213.126 59.24 226.95 59.24C240.774 59.24 251.355 63.1653 258.694 71.016C266.033 78.8667 269.702 89.96 269.702 104.296V198.504C269.702 212.84 266.033 223.933 258.694 231.784C251.355 239.635 240.774 243.56 226.95 243.56ZM226.95 217.96C236.678 217.96 241.542 212.072 241.542 200.296V102.504C241.542 90.728 236.678 84.84 226.95 84.84C217.222 84.84 212.358 90.728 212.358 102.504V200.296C212.358 212.072 217.222 217.96 226.95 217.96ZM288.746 61.8H316.906V137.32L352.746 61.8H380.906L347.37 127.592L381.418 241H351.978L328.17 161.128L316.906 183.912V241H288.746V61.8ZM395.996 213.864H423.132V241H395.996V213.864ZM480.854 243.56C467.201 243.56 456.875 239.72 449.878 232.04C442.881 224.189 439.382 213.011 439.382 198.504V188.264H466.006V200.552C466.006 212.157 470.87 217.96 480.598 217.96C485.377 217.96 488.961 216.595 491.35 213.864C493.91 210.963 495.19 206.355 495.19 200.04C495.19 192.531 493.483 185.96 490.07 180.328C486.657 174.525 480.342 167.613 471.126 159.592C459.521 149.352 451.414 140.136 446.806 131.944C442.198 123.581 439.894 114.195 439.894 103.784C439.894 89.6187 443.478 78.696 450.646 71.016C457.814 63.1653 468.225 59.24 481.878 59.24C495.361 59.24 505.515 63.1653 512.342 71.016C519.339 78.696 522.838 89.7893 522.838 104.296V111.72H496.214V102.504C496.214 96.36 495.019 91.9227 492.63 89.192C490.241 86.2907 486.742 84.84 482.134 84.84C472.747 84.84 468.054 90.5573 468.054 101.992C468.054 108.477 469.761 114.536 473.174 120.168C476.758 125.8 483.158 132.627 492.374 140.648C504.15 150.888 512.257 160.189 516.694 168.552C521.131 176.915 523.35 186.728 523.35 197.992C523.35 212.669 519.681 223.933 512.342 231.784C505.174 239.635 494.678 243.56 480.854 243.56ZM539.496 61.8H567.656V134.76H597.864V61.8H626.024V241H597.864V160.36H567.656V241H539.496V61.8ZM687.7 243.56C673.876 243.56 663.295 239.635 655.956 231.784C648.617 223.933 644.948 212.84 644.948 198.504V104.296C644.948 89.96 648.617 78.8667 655.956 71.016C663.295 63.1653 673.876 59.24 687.7 59.24C701.524 59.24 712.105 63.1653 719.444 71.016C726.783 78.8667 730.452 89.96 730.452 104.296V198.504C730.452 212.84 726.783 223.933 719.444 231.784C712.105 239.635 701.524 243.56 687.7 243.56ZM687.7 217.96C697.428 217.96 702.292 212.072 702.292 200.296V102.504C702.292 90.728 697.428 84.84 687.7 84.84C677.972 84.84 673.108 90.728 673.108 102.504V200.296C673.108 212.072 677.972 217.96 687.7 217.96ZM749.496 61.8H790.968C804.963 61.8 815.459 65.5547 822.456 73.064C829.453 80.5733 832.952 91.5813 832.952 106.088V123.752C832.952 138.259 829.453 149.267 822.456 156.776C815.459 164.285 804.963 168.04 790.968 168.04H777.656V241H749.496V61.8ZM790.968 142.44C795.576 142.44 798.989 141.16 801.208 138.6C803.597 136.04 804.792 131.688 804.792 125.544V104.296C804.792 98.152 803.597 93.8 801.208 91.24C798.989 88.68 795.576 87.4 790.968 87.4H777.656V142.44H790.968Z" fill="black"/>
<path d="M32.256 57.8H70.4L99.584 237H71.424L66.304 201.416V201.928H34.304L29.184 237H3.072L32.256 57.8ZM62.976 177.608L50.432 89.032H49.92L37.632 177.608H62.976ZM104.15 134.6H160.47V160.2H104.15V134.6ZM217.95 239.56C204.126 239.56 193.545 235.635 186.206 227.784C178.867 219.933 175.198 208.84 175.198 194.504V100.296C175.198 85.96 178.867 74.8667 186.206 67.016C193.545 59.1653 204.126 55.24 217.95 55.24C231.774 55.24 242.355 59.1653 249.694 67.016C257.033 74.8667 260.702 85.96 260.702 100.296V194.504C260.702 208.84 257.033 219.933 249.694 227.784C242.355 235.635 231.774 239.56 217.95 239.56ZM217.95 213.96C227.678 213.96 232.542 208.072 232.542 196.296V98.504C232.542 86.728 227.678 80.84 217.95 80.84C208.222 80.84 203.358 86.728 203.358 98.504V196.296C203.358 208.072 208.222 213.96 217.95 213.96ZM279.746 57.8H307.906V133.32L343.746 57.8H371.906L338.37 123.592L372.418 237H342.978L319.17 157.128L307.906 179.912V237H279.746V57.8ZM386.996 209.864H414.132V237H386.996V209.864ZM471.854 239.56C458.201 239.56 447.875 235.72 440.878 228.04C433.881 220.189 430.382 209.011 430.382 194.504V184.264H457.006V196.552C457.006 208.157 461.87 213.96 471.598 213.96C476.377 213.96 479.961 212.595 482.35 209.864C484.91 206.963 486.19 202.355 486.19 196.04C486.19 188.531 484.483 181.96 481.07 176.328C477.657 170.525 471.342 163.613 462.126 155.592C450.521 145.352 442.414 136.136 437.806 127.944C433.198 119.581 430.894 110.195 430.894 99.784C430.894 85.6187 434.478 74.696 441.646 67.016C448.814 59.1653 459.225 55.24 472.878 55.24C486.361 55.24 496.515 59.1653 503.342 67.016C510.339 74.696 513.838 85.7893 513.838 100.296V107.72H487.214V98.504C487.214 92.36 486.019 87.9227 483.63 85.192C481.241 82.2907 477.742 80.84 473.134 80.84C463.747 80.84 459.054 86.5573 459.054 97.992C459.054 104.477 460.761 110.536 464.174 116.168C467.758 121.8 474.158 128.627 483.374 136.648C495.15 146.888 503.257 156.189 507.694 164.552C512.131 172.915 514.35 182.728 514.35 193.992C514.35 208.669 510.681 219.933 503.342 227.784C496.174 235.635 485.678 239.56 471.854 239.56ZM530.496 57.8H558.656V130.76H588.864V57.8H617.024V237H588.864V156.36H558.656V237H530.496V57.8ZM678.7 239.56C664.876 239.56 654.295 235.635 646.956 227.784C639.617 219.933 635.948 208.84 635.948 194.504V100.296C635.948 85.96 639.617 74.8667 646.956 67.016C654.295 59.1653 664.876 55.24 678.7 55.24C692.524 55.24 703.105 59.1653 710.444 67.016C717.783 74.8667 721.452 85.96 721.452 100.296V194.504C721.452 208.84 717.783 219.933 710.444 227.784C703.105 235.635 692.524 239.56 678.7 239.56ZM678.7 213.96C688.428 213.96 693.292 208.072 693.292 196.296V98.504C693.292 86.728 688.428 80.84 678.7 80.84C668.972 80.84 664.108 86.728 664.108 98.504V196.296C664.108 208.072 668.972 213.96 678.7 213.96ZM740.496 57.8H781.968C795.963 57.8 806.459 61.5547 813.456 69.064C820.453 76.5733 823.952 87.5813 823.952 102.088V119.752C823.952 134.259 820.453 145.267 813.456 152.776C806.459 160.285 795.963 164.04 781.968 164.04H768.656V237H740.496V57.8ZM781.968 138.44C786.576 138.44 789.989 137.16 792.208 134.6C794.597 132.04 795.792 127.688 795.792 121.544V100.296C795.792 94.152 794.597 89.8 792.208 87.24C789.989 84.68 786.576 83.4 781.968 83.4H768.656V138.44H781.968Z" fill="black"/>
</svg>
